<svg xmlns="http://www.w3.org/2000/svg" width="256" height="256" fill="none" viewBox="0 0 256 256"><rect width="256" height="256" rx="60" fill="#242938"/><path d="m203.48 148.69c-20.32 4.19-21.796-2.693-21.796-2.693 21.466-31.852 30.445-72.282 22.696-82.175-21.121-27-57.691-14.224-58.303-13.894l-0.197 0.0352c-4.466-0.8962-9.007-1.3694-13.563-1.4133-9.197-0.1406-16.172 2.4117-21.473 6.4266 0 0-65.236-26.874-62.199 33.799 0.6469 12.91 18.492 97.735 39.797 72.071 7.8469-9.436 15.37-17.361 15.37-17.361 3.727 2.482 8.206 3.748 12.896 3.291l0.365-0.309c-0.107 1.215-0.057 2.439 0.148 3.642-5.484 6.131-3.867 7.207-14.836 9.464-11.095 2.285-4.5702 6.356-0.323 7.425 5.161 1.294 17.1 3.122 25.172-8.17l-0.324 1.286c2.152 1.723 3.656 11.201 3.403 19.793-0.253 8.593-0.422 14.485 1.266 19.097 1.687 4.613 3.375 14.977 17.789 11.953 12.045-2.58 18.281-9.281 19.16-20.432 0.619-7.932 2.011-6.765 2.11-13.852l1.125-3.361c1.286-10.758 0.21-14.224 7.628-12.607l1.807 0.162c5.464 0.246 12.615-0.879 16.805-2.827 9.035-4.19 14.393-11.194 5.484-9.351h-7e-3z" fill="#336791"/><g stroke="#fff"><g stroke-width="5.034"><path d="m146.07 48.596c-2.25 0.7032 36.31-14.098 58.233 13.908 7.735 9.8929-1.23 50.323-22.697 82.174m-53.508 9.106c-0.562 20.011 0.141 40.162 2.096 45 1.954 4.837 6.152 14.414 20.573 11.334 12.045-2.58 16.432-7.58 18.331-18.612l4.45-35.275m-62.732-102.76s-65.278-26.691-62.241 33.982c0.6469 12.909 18.492 97.734 39.797 72.07 7.7765-9.373 14.808-16.706 14.808-16.706" stroke-linecap="round" stroke-linejoin="round"/><path d="m181.61 144.66s1.407 6.891 21.797 2.686c8.909-1.842 3.544 5.161-5.484 9.352-7.411 3.445-24.033 4.324-24.307-0.422-0.703-12.27 8.747-8.543 8.065-11.616-0.619-2.77-4.852-5.484-7.636-12.262-2.44-5.907-33.469-51.258 8.606-44.529 1.547-0.3164-10.969-40.078-50.344-40.655-39.375-0.5766-38.13 48.41-38.13 48.41" stroke-linecap="round" stroke-linejoin="bevel"/><path d="m117.08 148.87c-5.484 6.131-3.867 7.207-14.835 9.464-11.096 2.285-4.5708 6.356-0.324 7.425 5.161 1.294 17.1 3.122 25.172-8.178 2.461-3.445-0.014-8.929-3.389-10.321-1.631-0.675-3.811-1.519-6.609 1.617l-0.015-7e-3z" stroke-linejoin="round"/><path d="m116.72 148.76c-0.563-3.607 1.181-7.889 3.044-12.909 2.799-7.523 9.254-15.047 4.093-38.932-3.846-17.789-29.672-3.7054-29.672-1.2937s1.1672 12.235-0.4219 23.66c-2.0882 14.921 9.4922 27.535 22.823 26.248" stroke-linecap="round" stroke-linejoin="round"/></g><path d="m110.58 95.27c-0.12 0.8227 1.511 3.0235 3.628 3.3188 2.116 0.2953 3.923-1.4203 4.043-2.25 0.119-0.8297-1.512-1.7297-3.628-2.025-2.117-0.2953-3.938 0.1406-4.043 0.9562z" fill="#fff" stroke-width="1.68"/><path d="m175.01 93.589c0.112 0.8227-1.512 3.0234-3.628 3.3188-2.117 0.2953-3.938-1.4204-4.043-2.25-0.106-0.8297 1.512-1.7297 3.628-2.025 2.116-0.2954 3.937 0.1406 4.043 0.9562z" fill="#fff" stroke-width=".837"/><path d="m182.58 87.887c0.351 6.4688-1.393 10.863-1.618 17.747-0.323 9.998 4.768 21.445-2.904 32.906" stroke-linecap="round" stroke-linejoin="round" stroke-width="5.034"/></g></svg>
